<!--?xml version="1.0" standalone="no"?-->
              <svg id="sw-js-blob-svg" viewBox="0 0 100 100" xmlns="http://www.w3.org/2000/svg" version="1.1">
                    <defs> 
                        <linearGradient id="sw-gradient" x1="0" x2="1" y1="1" y2="0">
                            <stop id="stop1" stop-color="rgba(248, 117, 55, 1)" offset="0%"></stop>
                            <stop id="stop2" stop-color="rgba(251, 168, 31, 1)" offset="100%"></stop>
                        </linearGradient>
                    </defs>
                <path fill="url(#sw-gradient)" d="M24.1,-30.8C30.3,-23.6,33.7,-15.1,36.3,-5.6C38.9,3.8,40.7,14.2,36.9,21.9C33.2,29.7,23.9,34.9,14.3,37.7C4.7,40.5,-5.1,40.8,-13.6,37.6C-22.1,34.4,-29.1,27.7,-33,19.7C-36.8,11.7,-37.5,2.5,-35.5,-5.8C-33.5,-14.1,-28.9,-21.5,-22.5,-28.7C-16.2,-35.9,-8.1,-42.9,0.4,-43.4C9,-44,17.9,-38,24.1,-30.8Z" width="100%" height="100%" transform="translate(50 50)" stroke-width="0" style="transition: all 0.3s;"></path>
              </svg>